# xmcd
#
# Track frame offsets: 
#        150
#        20238
#        38647
#        60673
#        82372
#        100450
#        112511
#        127120
#        139797
#        152957
#        182466
#        199340
#        219565
#
# Disc length: 3191 seconds
#
# Revision: 0
# Processed by: cddbd v1.5.2PL0 Copyright (c) Steve Scherf et al.
# Submitted via: ExactAudioCopy v0.99pb4
#
DISCID=bd0c750d
DTITLE=Natalia Lafourcade - Hu Hu Hu
DYEAR=2009
DGENRE=Rock
TTITLE0=Cursis Melodias
TTITLE1=No Viniste
TTITLE2=Siempre Prisa
TTITLE3=Tiempo Al Viento
TTITLE4=Let's Get Out
TTITLE5=Hu Hu Hu
TTITLE6=Ella Es Bonita
TTITLE7=Nino Hojas
TTITLE8=Running Too Fast
TTITLE9=Azul
TTITLE10=Hora De Compartir
TTITLE11=Un Lugar Para Renacer
TTITLE12=Look Outside
EXTD=
EXTT0=
EXTT1=
EXTT2=
EXTT3=
EXTT4=
EXTT5=
EXTT6=
EXTT7=
EXTT8=
EXTT9=
EXTT10=
EXTT11=
EXTT12=
PLAYORDER=
